<svg xmlns="http://www.w3.org/2000/svg" width="200" height="200" viewBox="0 0 200 200">
  <rect width="200" height="200" fill="#fff"/>
  <g fill="#1a1a1a">
    <rect x="16" y="16" width="56" height="56"/><rect x="24" y="24" width="40" height="40" fill="#fff"/><rect x="32" y="32" width="24" height="24"/>
    <rect x="128" y="16" width="56" height="56"/><rect x="136" y="24" width="40" height="40" fill="#fff"/><rect x="144" y="32" width="24" height="24"/>
    <rect x="16" y="128" width="56" height="56"/><rect x="24" y="136" width="40" height="40" fill="#fff"/><rect x="32" y="144" width="24" height="24"/>
    <rect x="88" y="16" width="12" height="12"/><rect x="112" y="16" width="12" height="12"/>
    <rect x="88" y="40" width="12" height="12"/><rect x="100" y="52" width="12" height="12"/>
    <rect x="88" y="88" width="24" height="24"/><rect x="120" y="88" width="12" height="12"/><rect x="144" y="88" width="12" height="12"/>
    <rect x="88" y="120" width="12" height="12"/><rect x="112" y="112" width="12" height="12"/><rect x="136" y="120" width="24" height="12"/>
    <rect x="88" y="152" width="12" height="12"/><rect x="112" y="152" width="12" height="12"/><rect x="136" y="152" width="12" height="12"/><rect x="160" y="152" width="12" height="12"/>
    <rect x="88" y="176" width="12" height="12"/><rect x="120" y="176" width="24" height="12"/><rect x="160" y="176" width="24" height="12"/>
  </g>
</svg>
