<svg preserveAspectRatio="xMidYMid meet" width="20" height="20" overflow="visible" style="display: block;" viewBox="0 0 20 20" fill="none" xmlns="http://www.w3.org/2000/svg">
<g id="Frame" clip-path="url(#clip0_0_4)">
<path id="Vector" d="M6.58959 6.6763C6.24277 6.6763 5.89595 6.90751 5.89595 7.25434C5.89595 7.60116 6.24277 7.83237 6.58959 7.83237C6.93642 7.83237 7.16763 7.60116 7.16763 7.25434C7.16763 6.89306 6.93642 6.6763 6.58959 6.6763ZM11.2861 10.0289C11.0549 10.0289 10.8381 10.2746 10.8381 10.4913C10.8381 10.737 11.0694 10.9538 11.2861 10.9538C11.6329 10.9538 11.8642 10.7225 11.8642 10.4913C11.8642 10.2601 11.6329 10.0289 11.2861 10.0289ZM9.79769 7.83237C10.1445 7.83237 10.3757 7.58671 10.3757 7.25434C10.3757 6.90751 10.1445 6.6763 9.79769 6.6763C9.45087 6.6763 9.10405 6.90751 9.10405 7.25434C9.10405 7.60116 9.45087 7.83237 9.79769 7.83237ZM13.8006 10.0289C13.5694 10.0289 13.3526 10.2746 13.3526 10.4913C13.3526 10.737 13.5838 10.9538 13.8006 10.9538C14.1474 10.9538 14.3786 10.7225 14.3786 10.4913C14.3786 10.2601 14.1474 10.0289 13.8006 10.0289Z" fill="#28C445"/>
<path id="Vector_2" d="M9.9711 0.0578035C4.46532 0.0578035 0 4.52312 0 10.0289C0 15.5347 4.46532 20 9.9711 20C15.4769 20 19.9422 15.5347 19.9422 10.0289C19.9422 4.52312 15.4769 0.0578035 9.9711 0.0578035ZM8.07803 12.5867C7.5 12.5867 7.03757 12.4711 6.48844 12.341L4.89884 13.1503L5.34682 11.7486C4.2052 10.9393 3.51156 9.88439 3.51156 8.62717C3.51156 6.41618 5.57803 4.68208 8.07803 4.68208C10.3179 4.68208 12.2977 6.06936 12.6879 7.93353C12.5434 7.91908 12.3988 7.90462 12.2543 7.90462C10.0867 7.93353 8.3815 9.56647 8.3815 11.5896C8.3815 11.922 8.43931 12.2399 8.52601 12.5578C8.3815 12.5723 8.22254 12.5867 8.07803 12.5867ZM14.841 14.2052L15.1879 15.3613L13.9451 14.6676C13.4971 14.7832 13.0347 14.8988 12.5723 14.8988C10.3902 14.8988 8.67052 13.396 8.67052 11.5318C8.65607 9.68208 10.3757 8.17919 12.5434 8.17919C14.6098 8.17919 16.4306 9.69653 16.4306 11.5462C16.4306 12.5867 15.7514 13.5116 14.841 14.2052Z" fill="#28C445" fill-rule="evenodd"/>
</g>
<defs>
<clipPath id="clip0_0_4">
<rect width="20" height="20" fill="white"/>
</clipPath>
</defs>
</svg>
