<svg xmlns="http://www.w3.org/2000/svg" width="44" height="44" viewBox="0 0 44 44" fill="none" preserveAspectRatio="xMidYMid meet">
  <path d="M44 22.0228C44 34.1595 34.1496 44 21.9977 44C9.84695 44 0 34.1594 0 22.0228C0 12.7069 5.79888 4.7479 13.9885 1.54937C16.4629 0.551226 19.1663 0 21.9983 0C24.8337 0 27.5347 0.550669 30.0115 1.54937C38.2006 4.7479 44 12.7069 44 22.0228ZM13.5422 17.3879C13.5422 21.0915 15.4399 24.2981 18.1987 25.8677C19.3428 26.5187 20.631 26.8941 21.9977 26.8941C23.3164 26.8941 24.5598 26.5429 25.6739 25.9363C28.4978 24.3967 30.4567 21.1509 30.4567 17.3885C30.4567 12.1499 26.6629 7.88582 21.9977 7.88582C17.3354 7.88527 13.5422 12.1494 13.5422 17.3879ZM22.0871 42.5758C28.5145 42.5758 34.2481 39.6201 38.0062 34.9945C37.5623 31.3456 34.0065 28.2394 28.9741 26.69C27.0734 28.3997 24.6451 29.4284 21.9971 29.4284C19.2903 29.4284 16.8124 28.3443 14.8933 26.5602C9.99801 27.9573 6.41238 30.807 5.57166 34.2217C9.30086 39.2873 15.3114 42.5758 22.0871 42.5758Z" fill="#D8BABA"/>
</svg>
