<svg preserveAspectRatio="xMidYMid meet" width="26" height="10" overflow="visible" style="display: block;" viewBox="0 0 26 10" fill="none" xmlns="http://www.w3.org/2000/svg">
<path id="Union" d="M12 0C11.5069 0.927992 10.9488 2.01245 10.3252 3.25293L7.82324 8.26367C7.58155 8.75209 7.31048 9.33095 7.01074 10C6.19828 9.99028 5.61771 9.98535 5.26953 9.98535C4.94537 9.98539 4.33315 9.99027 3.43359 10L3.16504 9.10645L1.39355 3.95605L0 0C0.657073 0.0098651 1.24179 0.0146476 1.75391 0.0146484C2.06785 0.0146484 2.56081 0.00982836 3.23242 0C3.34384 0.434969 3.43113 0.765394 3.49414 0.990234C3.58145 1.28359 3.74604 1.81413 3.98828 2.58105L5.05762 6.04785C5.16416 6.40954 5.29512 6.88145 5.4502 7.46289L5.7832 6.62012L8.3125 1.01855C8.35602 0.916037 8.40642 0.798891 8.46191 0.666992C8.51749 0.535104 8.60579 0.31265 8.72656 0C9.4278 0.00985818 9.99128 0.0146449 10.417 0.0146484C10.6832 0.0146484 11.2111 0.00983138 12 0ZM16 0C15.9046 1.0989 15.8276 2.13941 15.7695 3.12109C15.6955 4.48853 15.6431 5.76687 15.6113 6.95605C15.5796 8.14537 15.5635 9.16001 15.5635 10L13.9434 9.98535C13.6271 9.98532 12.9794 9.99028 12 10C12.3037 6.07834 12.456 3.06008 12.4561 0.945312L12.4473 0C13.37 0.00986353 13.9875 0.0146461 14.2988 0.0146484C14.4411 0.0146484 15.0084 0.00983138 16 0ZM22.4092 0C23.0928 0 23.5995 0.0414398 23.9287 0.124023C24.2578 0.206742 24.5558 0.337183 24.8213 0.514648C25.0866 0.692143 25.306 0.899683 25.4795 1.1377C25.653 1.37603 25.7833 1.64735 25.8701 1.95117C25.9569 2.25501 26 2.56497 26 2.88086C26 3.53243 25.8344 4.12827 25.5029 4.66797C25.1712 5.20771 24.7036 5.61155 24.1016 5.87891C23.4997 6.14625 22.8239 6.28024 22.0742 6.28027C21.7987 6.28027 21.4794 6.2507 21.1172 6.19238C21.0763 5.96878 20.9998 5.63574 20.8877 5.19336C20.7755 4.75115 20.6837 4.42303 20.6123 4.20898C20.8367 4.25274 21.0716 4.27441 21.3164 4.27441C21.8314 4.2744 22.2152 4.15656 22.4678 3.9209C22.7202 3.68519 22.8466 3.39686 22.8467 3.05664C22.8467 2.89151 22.8187 2.74408 22.7627 2.61523C22.7065 2.48655 22.6174 2.38058 22.4951 2.29785C22.3727 2.21524 22.2368 2.16112 22.0889 2.13672C21.9409 2.11251 21.7725 2.10059 21.584 2.10059C21.4004 2.10059 21.2087 2.10559 21.0098 2.11523L20.3672 2.15918C20.3016 3.09764 20.2512 4.14062 20.2158 5.28809C20.1502 7.37905 20.1172 8.6336 20.1172 9.05176V10L18.5928 9.98535C18.3779 9.98532 17.847 9.99032 17 10L17.1523 8.13281L17.3496 4.48535L17.4336 1.90332C17.4386 1.62629 17.4414 1.34929 17.4414 1.07227C17.4414 0.86329 17.4386 0.520449 17.4336 0.0439453C18.1072 0.0585197 18.6483 0.0654297 19.0566 0.0654297C19.4495 0.0654239 19.9881 0.0551177 20.6719 0.0332031C21.3555 0.0113287 21.9346 5.41217e-06 22.4092 0Z" fill="url(#paint0_linear_0_5)"/>
<defs>
<linearGradient id="paint0_linear_0_5" x1="23.2917" y1="8.33333" x2="17.7868" y2="-4.38894" gradientUnits="userSpaceOnUse">
<stop stop-color="#F23E3D"/>
<stop offset="1" stop-color="#FA426E"/>
</linearGradient>
</defs>
</svg>

