<svg width="20" height="20" viewBox="0 0 20 20" fill="none" xmlns="http://www.w3.org/2000/svg" aria-hidden="true">
  <path d="M9.91797 0.68457C9.96392 0.638752 10.0409 0.63879 10.0869 0.68457H10.0879L19.3154 9.90625C19.3617 9.95288 19.3618 10.0326 19.3154 10.0791C19.3046 10.09 19.2881 10.1013 19.2695 10.1094C19.2512 10.1173 19.2387 10.1181 19.2354 10.1182H17.0459V17.6953L17.0479 17.7236C17.0626 17.8939 17.0592 18.4422 16.7041 18.8604C16.5005 19.0667 16.1225 19.3496 15.376 19.3496H12.2969C12.2315 19.3496 12.177 19.2962 12.1768 19.2295V12.4414H7.80762V19.2295C7.80737 19.2971 7.75267 19.3494 7.68848 19.3496H4.61914C3.85552 19.3496 3.48021 19.057 3.30762 18.8604L3.30176 18.8535C2.92442 18.4349 2.92231 17.8724 2.93652 17.7158L2.93945 17.6865V10.1289H0.769531C0.704259 10.1288 0.650554 10.0746 0.650391 10.0078C0.650391 9.99361 0.652915 9.9786 0.658203 9.96582C0.663439 9.9533 0.669711 9.94525 0.673828 9.94141L0.689453 9.92578L9.91797 0.68457Z" stroke="#1A1A1A" stroke-width="1.3" stroke-miterlimit="10"/>
</svg>
