<svg width="20" height="17" viewBox="0 0 19.5 16.5" fill="none" xmlns="http://www.w3.org/2000/svg" aria-hidden="true">
  <path d="M16.6011 4.20801C17.658 5.07914 18.5464 6.14645 19.2076 7.35547C19.5976 8.06867 19.5976 8.93132 19.2076 9.64453C17.3817 12.9832 13.8307 15.25 9.74958 15.25C8.49425 15.25 7.28963 15.0338 6.1695 14.6396L8.70759 12.1016C9.03854 12.1971 9.38784 12.25 9.74958 12.25C11.8206 12.25 13.4996 10.5711 13.4996 8.5C13.4996 8.13826 13.4467 7.78896 13.3511 7.45801L16.6011 4.20801ZM9.74958 1.75C11.8065 1.75002 13.7283 2.32655 15.3629 3.32519L12.6109 6.07715C11.923 5.26561 10.8967 4.75 9.74958 4.75C7.67853 4.75002 5.99958 6.42894 5.99958 8.5C5.99958 9.64716 6.5152 10.6735 7.32673 11.3613L4.69489 13.9932C2.83568 13.0044 1.30097 11.4883 0.292549 9.64453C-0.0975106 8.93128 -0.0975219 8.06872 0.292549 7.35547C2.11849 4.01692 5.66857 1.75004 9.74958 1.75ZM9.74958 6.25C10.2617 6.25 10.7327 6.42275 11.1109 6.71094L9.74958 8.5L8.16364 10.0957C7.75361 9.68815 7.49958 9.12379 7.49958 8.5C7.49958 7.25737 8.50696 6.25002 9.74958 6.25Z" fill="black"/>
  <path d="M16.9996 0.75L1.99962 15.75" stroke="black" stroke-width="1.5" stroke-linecap="round" stroke-linejoin="round"/>
</svg>
