<svg preserveAspectRatio="xMidYMid meet" width="16" height="18" viewBox="0 0 16 18" fill="none" xmlns="http://www.w3.org/2000/svg">
  <path d="M1.25 4.5H14.75M5 4.5V3C5 2.60218 5.15804 2.22064 5.43934 1.93934C5.72064 1.65804 6.10218 1.5 6.5 1.5H9.5C9.89782 1.5 10.2794 1.65804 10.5607 1.93934C10.842 2.22064 11 2.60218 11 3V4.5M13.25 4.5L12.5 15C12.5 15.3978 12.342 15.7794 12.0607 16.0607C11.7794 16.342 11.3978 16.5 11 16.5H5C4.60218 16.5 4.22064 16.342 3.93934 16.0607C3.65804 15.7794 3.5 15.3978 3.5 15L2.75 4.5M6.5 8.25V12.75M9.5 8.25V12.75" stroke="#929292" stroke-width="1.35" stroke-linecap="round" stroke-linejoin="round"/>
</svg>
