<svg xmlns="http://www.w3.org/2000/svg" width="24" height="24" viewBox="0 0 24 24" fill="none" preserveAspectRatio="xMidYMid meet" aria-hidden="true">
  <path d="M16.1998 16.5C16.1998 15.9477 16.6475 15.5 17.1998 15.5H21.1998C21.7521 15.5 22.1998 15.9477 22.1998 16.5V18.5C22.1998 19.0523 21.7521 19.5 21.1998 19.5H17.1998C16.6475 19.5 16.1998 19.0523 16.1998 18.5V16.5Z" fill="currentColor"/>
  <path d="M12.0002 18.3L4.20045 18.2998C2.87501 18.2998 1.80053 17.2253 1.80049 15.8999L1.80023 6.90004C1.80019 5.57453 2.87472 4.49998 4.20023 4.49998H18.5992C19.9249 4.49998 20.9997 5.57419 20.9997 6.8999L20.9998 8.69998M2.39977 8.69983H20.3998M17.6998 15V14C17.6998 13.1716 18.3713 12.5 19.1998 12.5C20.0282 12.5 20.6998 13.1716 20.6998 14V15.5M17.1998 19.5H21.1998C21.7521 19.5 22.1998 19.0523 22.1998 18.5V16.5C22.1998 15.9477 21.7521 15.5 21.1998 15.5H17.1998C16.6475 15.5 16.1998 15.9477 16.1998 16.5V18.5C16.1998 19.0523 16.6475 19.5 17.1998 19.5Z" stroke="currentColor" stroke-width="1.5" stroke-linecap="round" stroke-linejoin="round"/>
</svg>
