<svg width="41" height="16" viewBox="0 0 40.5581 15.6403" fill="none" xmlns="http://www.w3.org/2000/svg" aria-hidden="true">
  <g>
    <path d="M24.9409 0.0060407L35.3781 0.00774484C35.7233 0.00724822 36.3228 -0.0236392 36.6367 0.0415251C38.6605 0.461392 40.4411 2.13834 40.5418 4.27441L40.5039 4.29035C40.4951 4.3636 40.5097 4.39885 40.5063 4.43271C40.4819 4.67878 40.4523 4.77634 40.551 5.00849C40.5029 6.48609 40.0779 7.65496 39.1944 8.84018C38.9886 9.11628 38.8261 9.33438 38.5708 9.57383C37.4469 10.6143 36.0153 11.2612 34.4919 11.4172C34.2146 11.4454 33.9093 11.4503 33.6302 11.4509C32.8112 11.4528 31.9842 11.4737 31.1656 11.4629L31.1096 11.3754C31.0181 11.3558 30.2531 11.3607 30.1116 11.3616C29.341 11.3666 28.5691 11.3188 27.8007 11.3355C27.5971 11.3399 27.3161 11.3782 27.0836 11.3893C27.0618 11.4658 27.0672 11.5104 27.0706 11.5885C27.079 11.6898 26.9429 12.5501 26.9193 12.7124L26.5329 15.3876C25.7137 15.3492 24.8587 15.3988 24.0359 15.3796C23.6627 15.3709 23.2505 15.3721 22.8775 15.3865C22.954 14.8846 23.0159 14.3488 23.0847 13.8433L23.6515 9.66805C23.7468 8.96477 23.8337 8.24139 23.94 7.54143C24.7219 7.55323 25.5313 7.5426 26.3151 7.54254L33.4855 7.5432C34.4897 7.54358 35.4872 7.70242 36.2211 6.84342C36.9599 5.97856 36.902 4.06915 35.4906 3.96362C34.8955 3.91911 34.2354 3.94119 33.6342 3.94129L25.1726 3.94137C24.9487 3.94141 24.6587 3.93372 24.4423 3.95277C24.4989 3.35999 24.5936 2.72311 24.6699 2.12965C24.7564 1.4213 24.8466 0.713417 24.9409 0.0060407Z" fill="white"/>
    <path d="M13.8559 0.0121123C15.1781 -0.0222218 16.5512 0.0304072 17.8811 0.00508154C17.391 0.685766 16.9894 1.46627 16.5059 2.15194C16.1369 2.67535 15.7872 3.19831 15.4399 3.73632C15.2454 4.09947 14.9026 4.59569 14.6659 4.95214L13.0938 7.27867C12.3431 8.4245 11.5776 9.56058 10.7975 10.6866C10.601 10.9702 10.3721 11.2486 10.1835 11.5305C9.45996 12.6112 8.66912 13.6426 7.89046 14.6838C7.68296 14.9162 7.19949 15.5196 6.91842 15.6221C6.47993 15.7819 5.8333 14.8428 5.69338 14.5647C5.26829 13.7198 4.99272 12.8928 4.65148 12.0208C4.52782 11.7048 4.39269 11.4161 4.27163 11.1107C3.96778 10.3443 3.67379 9.57406 3.38979 8.80013L0 0.00781294C1.34359 0.0308497 2.74366 0.00765075 4.09302 0.00901645L6.44748 6.11033C6.79407 7.03046 7.11939 7.96572 7.51882 8.86459C7.61441 9.07974 7.67854 9.33402 7.78714 9.53979C7.95571 9.324 8.11598 9.00322 8.2737 8.7607C8.81697 7.92954 9.34512 7.08861 9.85796 6.23831C10.1444 5.77054 10.4474 5.36299 10.74 4.90604L12.5184 2.07708C12.8374 1.57514 13.1341 1.06497 13.4679 0.576786C13.5927 0.394216 13.7172 0.181096 13.8559 0.0121123Z" fill="white"/>
    <path d="M19.0012 0.0065533C20.2634 0.0132817 21.554 0.0185843 22.8155 0.00516558C22.6493 1.09397 22.5132 2.22557 22.3574 3.32062L21.4123 9.95956L20.9238 13.4831C20.8387 14.0926 20.7296 14.7791 20.661 15.388C20.2688 15.3725 19.8031 15.3642 19.4124 15.3796C18.593 15.4118 17.6862 15.3295 16.8761 15.3887C16.9518 14.8834 17.0152 14.1679 17.1129 13.6889C17.1183 13.7112 17.1287 13.7402 17.136 13.7627C17.2271 13.6436 17.2108 13.4663 17.1629 13.3335C17.221 12.7933 17.3202 12.1927 17.3934 11.6461L18.7294 1.98493C18.8202 1.33379 18.9018 0.653816 19.0012 0.0065533Z" fill="white"/>
  </g>
</svg>
